<svg xmlns="http://www.w3.org/2000/svg" width="24" height="24" viewBox="0 0 24 24">
    <path fill="white"
          d="M13,16.2928932 L16.1464466,13.1464466 C16.3417088,12.9511845 16.6582912,12.9511845 16.8535534,13.1464466 C17.0488155,13.3417088 17.0488155,13.6582912 16.8535534,13.8535534 L12.8535534,17.8535534 C12.6582912,18.0488155 12.3417088,18.0488155 12.1464466,17.8535534 L8.14644661,13.8535534 C7.95118446,13.6582912 7.95118446,13.3417088 8.14644661,13.1464466 C8.34170876,12.9511845 8.65829124,12.9511845 8.85355339,13.1464466 L12,16.2928932 L12,7.5 C12,7.22385763 12.2238576,7 12.5,7 C12.7761424,7 13,7.22385763 13,7.5 L13,16.2928932 Z M22,12.5 C22,17.7467051 17.7467051,22 12.5,22 C7.25329488,22 3,17.7467051 3,12.5 C3,7.25329488 7.25329488,3 12.5,3 C17.7467051,3 22,7.25329488 22,12.5 Z M21,12.5 C21,7.80557963 17.1944204,4 12.5,4 C7.80557963,4 4,7.80557963 4,12.5 C4,17.1944204 7.80557963,21 12.5,21 C17.1944204,21 21,17.1944204 21,12.5 Z"/>
</svg>
